<svg width="270" height="32" viewBox="0 0 270 32" fill="none" xmlns="http://www.w3.org/2000/svg">
<path d="M50.4731 7.84746H63.0198V10.0963H53.0501V13.8884H59.015V16.1645H53.0501V20.797H63.9169V23.0732H50.4731V7.84746Z" fill="white"/>
<path d="M72.9623 18.0607L68.2858 23.0719H65.2047L71.4217 16.4085L65.1766 9.6907H68.4815L73.0187 14.6473L77.6387 9.6907H80.748L74.5592 16.3283L80.748 23.0734H77.6106L72.9623 18.0623V18.0607Z" fill="white"/>
<path d="M40.6561 18.0607L35.9796 23.0719H32.8985L39.1155 16.4085L32.8704 9.6907H36.1753L40.7125 14.6473L45.3325 9.6907H48.4418L42.253 16.3283L48.4418 23.0734H45.3044L40.6561 18.0623V18.0607Z" fill="white"/>
<path d="M88.0724 11.6393C85.5236 11.6393 83.7028 13.7519 83.7028 16.3793C83.7028 19.0068 85.5236 21.1194 88.099 21.1194C90.8999 21.1194 91.9363 19.3581 92.1602 18.8978H94.6808C94.5415 19.8458 93.0557 23.394 88.099 23.394C84.1506 23.394 81.0695 20.3334 81.0695 16.3778C81.0695 12.4222 84.1224 9.36164 88.0708 9.36164C93.0839 9.36164 94.4554 12.8569 94.6792 13.8579H92.1023C91.8784 13.4248 90.842 11.6363 88.0693 11.6363L88.0724 11.6393Z" fill="white"/>
<path d="M118.02 14.6746H122.753C122.753 12.6166 121.127 11.505 118.86 11.505C116.593 11.505 115.64 12.7514 115.416 13.1845H112.839C113.204 11.5868 115.051 9.33792 118.86 9.33792C122.893 9.33792 125.19 11.5323 125.19 14.6474V19.6055C125.19 20.5535 125.527 20.9064 126.422 20.9866V23.2082C124.434 23.1537 123.23 22.4495 122.865 21.1229C122.194 22.1255 120.738 23.3718 118.272 23.3718C114.995 23.3718 112.446 21.6106 112.446 18.8483C112.446 16.0861 114.547 14.6762 118.02 14.6762V14.6746ZM122.753 16.6252H118.132C116.229 16.6252 114.995 17.3566 114.995 18.8468C114.995 20.337 116.507 21.3122 118.496 21.3122C120.736 21.3122 122.753 20.2552 122.753 18.0078V16.6252Z" fill="white"/>
<path d="M131.198 23.0716H128.65V9.69039H131.198V12.1558C131.731 11.073 133.326 9.39205 135.903 9.39205C139.404 9.39205 141.812 11.912 141.812 15.3784V23.0716H139.235V15.8388C139.235 13.3189 137.666 11.6667 135.286 11.6667C132.906 11.6667 131.197 13.4007 131.197 15.8388V23.0716H131.198Z" fill="white"/>
<path d="M174.777 16.6792H163.267C163.406 19.1719 165.255 21.1224 167.971 21.1224C170.688 21.1224 171.863 19.6868 172.089 19.2537H174.61C174.386 20.4182 172.621 23.3986 167.973 23.3986C163.688 23.3986 160.691 20.3107 160.691 16.3824C160.691 12.454 163.688 9.3662 167.721 9.3662C171.754 9.3662 174.779 12.292 174.779 16.6807L174.777 16.6792ZM163.434 14.6211H171.948C171.305 12.5888 169.82 11.4788 167.719 11.4788C165.479 11.4788 163.967 12.6706 163.434 14.6211Z" fill="white"/>
<path d="M155.925 20.7971C155.56 21.5013 154.047 23.4246 150.883 23.4246C147.187 23.4246 144.05 20.8244 144.05 16.4084C144.05 11.9925 147.185 9.36499 150.883 9.36499C154.019 9.36499 155.56 11.2065 155.925 11.9379V9.68907H158.473V22.466C158.473 26.2308 155.953 28.8598 151.22 28.8598C145.844 28.8598 144.386 25.4736 144.162 24.6331H146.963C147.159 24.9587 148.139 26.5836 151.22 26.5836C154.301 26.5836 155.925 25.0662 155.925 22.466V20.7956V20.7971ZM151.359 11.6411C148.53 11.6411 146.683 13.6992 146.683 16.4084C146.683 19.1177 148.532 21.1485 151.359 21.1485C154.187 21.1485 155.979 19.0359 155.979 16.4084C155.979 13.781 154.13 11.6411 151.359 11.6411Z" fill="white"/>
<path d="M99.6161 23.0716H97.0673V5.81506H99.6161V12.1543C100.148 11.07 101.744 9.39055 104.321 9.39055C107.821 9.39055 110.229 11.909 110.229 15.3769V23.0701H107.652V15.8373C107.652 13.3189 106.084 11.6652 103.704 11.6652C101.324 11.6652 99.6145 13.3991 99.6145 15.8373V23.0701L99.6161 23.0716Z" fill="white"/>
<path d="M23.1787 3.59632L18.7683 14.1526H25.1835C25.9281 14.1526 26.6154 14.6218 26.9018 15.3256C27.1309 16.088 26.9591 16.909 26.3863 17.4368L11.7231 30.5736C11.0357 31.1014 10.1193 31.1601 9.43192 30.6322C8.74458 30.1631 8.45819 29.2247 8.80186 28.4037L13.2123 17.8474H6.8544C6.0525 17.8474 5.36516 17.3782 5.13605 16.6744C4.84966 15.912 5.02149 15.091 5.59427 14.5632L20.2575 1.4264C20.9449 0.898588 21.8613 0.839942 22.5487 1.36776C23.236 1.83693 23.5224 2.77527 23.1787 3.59632Z" fill="white"/>
<path d="M183.364 23L192.156 3.40002H194.592L185.772 23H183.364Z" fill="#A5E6FE"/>
<path d="M202 3H208.061C209.921 3 211.603 3.38606 213.107 4.15819C214.629 4.91149 215.823 6.03202 216.687 7.51977C217.57 9.00753 218.012 10.7966 218.012 12.887C218.012 14.9774 217.57 16.7665 216.687 18.2542C215.823 19.742 214.629 20.8719 213.107 21.6441C211.603 22.3974 209.921 22.774 208.061 22.774H202V3ZM207.892 20.1751C209.188 20.1751 210.372 19.9209 211.444 19.4124C212.515 18.904 213.37 18.1036 214.009 17.0113C214.667 15.919 214.996 14.5443 214.996 12.887C214.996 11.2298 214.667 9.85499 214.009 8.76271C213.37 7.67043 212.515 6.87006 211.444 6.36158C210.372 5.85311 209.188 5.59887 207.892 5.59887H204.932V20.1751H207.892Z" fill="#A5E6FE"/>
<path d="M226.707 23C225.298 23 224.039 22.6893 222.93 22.0678C221.821 21.4275 220.947 20.5518 220.308 19.4407C219.688 18.3296 219.378 17.0678 219.378 15.6554C219.378 14.2429 219.688 12.9812 220.308 11.8701C220.947 10.7589 221.821 9.89266 222.93 9.27119C224.039 8.63089 225.298 8.31074 226.707 8.31074C228.117 8.31074 229.376 8.63089 230.485 9.27119C231.594 9.89266 232.458 10.7589 233.078 11.8701C233.698 12.9812 234.008 14.2429 234.008 15.6554C234.008 17.0678 233.698 18.3296 233.078 19.4407C232.458 20.5518 231.594 21.4275 230.485 22.0678C229.376 22.6893 228.117 23 226.707 23ZM222.169 15.6554C222.169 17.1055 222.582 18.2919 223.409 19.2147C224.255 20.1375 225.354 20.5989 226.707 20.5989C228.042 20.5989 229.122 20.1375 229.949 19.2147C230.795 18.2919 231.218 17.1055 231.218 15.6554C231.218 14.2053 230.795 13.0188 229.949 12.096C229.122 11.1733 228.042 10.7119 226.707 10.7119C225.354 10.7119 224.255 11.1733 223.409 12.096C222.582 13.0188 222.169 14.2053 222.169 15.6554Z" fill="#A5E6FE"/>
<path d="M242.29 23C240.862 23 239.612 22.6704 238.541 22.0113C237.488 21.3333 236.68 20.4388 236.116 19.3277C235.553 18.2166 235.271 16.9925 235.271 15.6554C235.271 14.3183 235.553 13.0942 236.116 11.9831C236.68 10.8719 237.488 9.98682 238.541 9.32768C239.612 8.64972 240.862 8.31074 242.29 8.31074C243.399 8.31074 244.432 8.52731 245.391 8.96045C246.349 9.37477 247.139 9.9774 247.759 10.7684C248.379 11.5405 248.755 12.4539 248.886 13.5085H246.152C246.02 12.6987 245.598 12.0301 244.883 11.5028C244.169 10.9755 243.324 10.7119 242.346 10.7119C240.993 10.7119 239.95 11.1827 239.217 12.1243C238.484 13.0471 238.118 14.2241 238.118 15.6554C238.118 17.0866 238.484 18.2731 239.217 19.2147C239.969 20.1375 241.021 20.5989 242.375 20.5989C243.333 20.5989 244.151 20.3635 244.827 19.8927C245.504 19.4218 245.955 18.7815 246.18 17.9718H248.886C248.661 19.4783 247.956 20.693 246.772 21.6158C245.588 22.5386 244.094 23 242.29 23Z" fill="#A5E6FE"/>
<path d="M255.672 23C253.999 23 252.646 22.5669 251.613 21.7006C250.579 20.8343 250.015 19.6478 249.921 18.1412H252.487C252.562 18.951 252.872 19.5819 253.417 20.0339C253.981 20.4859 254.732 20.7119 255.672 20.7119C256.461 20.7119 257.1 20.5235 257.589 20.1469C258.096 19.7702 258.35 19.3183 258.35 18.791C258.35 18.2637 258.2 17.8588 257.899 17.5763C257.617 17.2938 257.26 17.096 256.828 16.9831C256.396 16.8512 255.794 16.7194 255.024 16.5876C254.009 16.4181 253.182 16.2298 252.543 16.0226C251.923 15.7966 251.387 15.4011 250.936 14.8362C250.504 14.2712 250.288 13.4614 250.288 12.4068C250.288 11.1827 250.758 10.194 251.697 9.44068C252.637 8.68738 253.849 8.31074 255.334 8.31074C256.931 8.31074 258.228 8.72505 259.224 9.55367C260.239 10.3635 260.793 11.4369 260.887 12.774H258.294C258.2 12.0207 257.852 11.4557 257.251 11.0791C256.668 10.6836 256.029 10.4859 255.334 10.4859C254.582 10.4859 253.981 10.6554 253.53 10.9944C253.079 11.3333 252.853 11.7759 252.853 12.322C252.853 13 253.107 13.4614 253.614 13.7062C254.14 13.9322 254.939 14.1205 256.01 14.2712C257.063 14.4218 257.918 14.6102 258.576 14.8362C259.233 15.0621 259.797 15.4859 260.267 16.1073C260.756 16.71 261 17.5857 261 18.7345C261 20.0339 260.511 21.0697 259.534 21.8418C258.576 22.6139 257.288 23 255.672 23Z" fill="#A5E6FE"/>
</svg>
