<svg xmlns="http://www.w3.org/2000/svg" width="365" height="43" viewBox="0 0 365 43" fill="none" style="&#10;    background: black;&#10;">
<path d="M272 31.306H280.572C289.101 31.306 295.552 25.6344 295.552 16.153C295.552 6.67155 289.101 1 280.572 1H272V31.306ZM274.901 28.6217V3.68425H280.659C286.807 3.68425 292.478 7.45085 292.478 16.153C292.478 24.8551 286.807 28.6217 280.659 28.6217H274.901Z" fill="black"/>
<path d="M310.188 31.6523C316.596 31.6523 321.185 26.9766 321.185 20.3958C321.185 13.8151 316.596 9.13932 310.188 9.13932C303.781 9.13932 299.192 13.8151 299.192 20.3958C299.192 26.9766 303.781 31.6523 310.188 31.6523ZM310.188 29.1413C305.339 29.1413 302.049 25.5046 302.049 20.3958C302.049 15.2871 305.339 11.6504 310.188 11.6504C315.037 11.6504 318.328 15.2871 318.328 20.3958C318.328 25.5046 315.037 29.1413 310.188 29.1413Z" fill="black"/>
<path d="M335.078 31.6523C340.576 31.6523 343.91 28.9248 344.689 24.5521H342.091C341.226 27.4095 338.671 29.1413 335.078 29.1413C329.926 29.1413 327.501 25.1149 327.501 20.3958C327.501 15.6768 329.882 11.6504 335.078 11.6504C338.671 11.6504 341.658 13.7718 342.091 16.6292H344.776C344.04 11.8236 339.71 9.13932 335.078 9.13932C328.151 9.13932 324.644 14.681 324.644 20.3958C324.644 26.1107 328.151 31.6523 335.078 31.6523Z" fill="black"/>
<path d="M356.558 31.6523C361.278 31.6523 364.438 29.2279 364.438 25.418C364.438 15.3737 351.406 21.4349 351.406 15.1139C351.406 13.0358 353.268 11.6504 356.082 11.6504C358.16 11.6504 361.234 12.6029 361.581 15.6768H364.308C364.048 11.737 360.888 9.13932 356.255 9.13932C351.58 9.13932 348.549 11.4772 348.549 15.1139C348.549 24.5954 361.581 18.2744 361.581 25.418C361.581 27.4095 359.589 29.1413 356.558 29.1413C353.095 29.1413 351.06 27.4961 350.757 24.4222H348.029C348.376 28.9248 351.623 31.6523 356.558 31.6523Z" fill="black"/>
<path d="M32.7153 3.7251H55.0437V7.8471H37.3014V14.7976H47.9167V18.9696H37.3014V27.4606H56.6402V31.6326H32.7153V3.7251Z" fill="black"/>
<path d="M72.7389 22.4437L64.4166 31.6287H58.9334L69.9974 19.4153L58.8833 7.10205H64.7649L72.8393 16.1871L81.0613 7.10205H86.5946L75.5808 19.2682L86.5946 31.6314H81.0111L72.7389 22.4464V22.4437Z" fill="black"/>
<path d="M99.6266 10.6762C95.0907 10.6762 91.8504 14.5484 91.8504 19.3643C91.8504 24.1803 95.0907 28.0525 99.674 28.0525C104.658 28.0525 106.503 24.8242 106.901 23.9804H111.387C111.139 25.718 108.495 32.2216 99.674 32.2216C92.6473 32.2216 87.1641 26.6118 87.1641 19.3616C87.1641 12.1113 92.5971 6.50146 99.6238 6.50146C108.545 6.50146 110.986 12.9079 111.384 14.7427H106.798C106.4 13.9488 104.555 10.6707 99.621 10.6707L99.6266 10.6762Z" fill="black"/>
<path d="M152.923 16.2373H161.346C161.346 12.4651 158.454 10.4277 154.419 10.4277C150.385 10.4277 148.688 12.7121 148.29 13.506H143.704C144.353 10.5776 147.641 6.45557 154.419 6.45557C161.597 6.45557 165.684 10.4776 165.684 16.1874V25.2752C165.684 27.0128 166.283 27.6596 167.877 27.8067V31.8787C164.338 31.7788 162.196 30.4881 161.546 28.0565C160.351 29.8941 157.76 32.1785 153.372 32.1785C147.54 32.1785 143.004 28.9503 143.004 23.8873C143.004 18.8243 146.743 16.2401 152.923 16.2401V16.2373ZM161.346 22.344V19.8125H153.124C149.736 19.8125 147.54 21.1532 147.54 23.8846C147.54 26.6159 150.232 28.4035 153.77 28.4035C157.757 28.4035 161.346 26.466 161.346 22.3468V22.344Z" fill="black"/>
<path d="M176.375 31.6305H171.839V7.10395H176.375V11.6229C177.322 9.63822 180.161 6.55713 184.747 6.55713C190.977 6.55713 195.262 11.176 195.262 17.5297V31.6305H190.676V18.3735C190.676 13.7547 187.884 10.7263 183.649 10.7263C179.414 10.7263 176.372 13.9046 176.372 18.3735V31.6305H176.375Z" fill="black"/>
<path d="M253.928 19.9144H233.444C233.692 24.4833 236.983 28.0585 241.817 28.0585C246.651 28.0585 248.743 25.427 249.144 24.6332H253.63C253.232 26.7677 250.091 32.2304 241.819 32.2304C234.194 32.2304 228.861 26.5707 228.861 19.3703C228.861 12.17 234.194 6.51025 241.371 6.51025C248.548 6.51025 253.931 11.873 253.931 19.9172L253.928 19.9144ZM233.742 16.1421H248.893C247.748 12.4171 245.107 10.3824 241.368 10.3824C237.381 10.3824 234.69 12.567 233.742 16.1421Z" fill="black"/>
<path d="M220.379 27.461C219.73 28.7518 217.038 32.277 211.407 32.277C204.829 32.277 199.246 27.511 199.246 19.4169C199.246 11.3228 204.826 6.50684 211.407 6.50684C216.988 6.50684 219.73 9.88216 220.379 11.2228V7.10085H224.915V30.5199C224.915 37.4205 220.429 42.2392 212.006 42.2392C202.439 42.2392 199.845 36.0326 199.446 34.492H204.431C204.779 35.0888 206.523 38.0672 212.006 38.0672C217.489 38.0672 220.379 35.2859 220.379 30.5199V27.4583V27.461ZM212.254 10.6788C207.22 10.6788 203.932 14.4511 203.932 19.4169C203.932 24.3827 207.222 28.105 212.254 28.105C217.286 28.105 220.476 24.2328 220.476 19.4169C220.476 14.6009 217.186 10.6788 212.254 10.6788V10.6788Z" fill="black"/>
<path d="M120.17 31.6298H115.634V0H120.17V11.6193C121.117 9.63188 123.957 6.55356 128.543 6.55356C134.773 6.55356 139.058 11.1696 139.058 17.5261V31.627H134.472V18.37C134.472 13.7539 131.68 10.7228 127.445 10.7228C123.21 10.7228 120.167 13.901 120.167 18.37V31.627L120.17 31.6298Z" fill="black"/>
<path d="M13.4934 10.6083L24.3651 4.86246L22.5374 1.38721L12.5824 5.37042C12.326 5.47312 12.0418 5.47312 11.7855 5.37042L1.82773 1.38721L0 4.86246L10.8717 10.6083L0 16.3513L1.82773 19.8266L11.7827 15.8434C12.0391 15.7407 12.3233 15.7407 12.5796 15.8434L22.5346 19.8266L24.3623 16.3513L13.4907 10.6055L13.4934 10.6083Z" fill="#3364F6"/>
</svg>