<svg xmlns="http://www.w3.org/2000/svg" viewBox="0 0 149 48" >
	<style>
		tspan { white-space:pre }
	</style>
	<g id="Elrond Swap Landing Page – v2.2">
		<g id="Group 420">
			<g id="Group 419">
				<g id="Group">
					<path id="Path" d="M38.14 9.87C37.96 9.73 37.86 9.49 37.86 9.27C37.86 9.04 37.96 8.79 38.14 8.66C38.52 8.33 39.08 8.33 39.46 8.66C39.65 8.8 39.74 9.04 39.74 9.27C39.74 9.49 39.65 9.74 39.46 9.87C39.13 10.21 38.51 10.21 38.14 9.87Z" />
					<path id="Path 102" d="M35.78 12.33C35.63 12.15 35.54 11.95 35.54 11.73C35.54 11.25 35.92 10.83 36.44 10.83C36.67 10.83 36.91 10.92 37.04 11.1C37.19 11.29 37.28 11.49 37.28 11.71C37.28 11.95 37.19 12.19 37.04 12.32C36.86 12.47 36.66 12.56 36.44 12.56C36.16 12.57 35.96 12.48 35.78 12.33Z" />
					<path id="Path 103" d="M33.19 14.79C32.85 14.46 32.85 13.89 33.19 13.56L33.19 13.56C33.52 13.23 34.08 13.23 34.45 13.56C34.78 13.89 34.78 14.46 34.45 14.79C34.31 14.98 34.07 15.07 33.85 15.07C33.56 15.07 33.37 14.98 33.19 14.79Z" />
					<path id="Path 104" d="M30.73 17.29C30.4 16.96 30.34 16.44 30.67 16.06L30.73 16.01C31.11 15.68 31.67 15.68 32.05 16.01C32.38 16.34 32.43 16.85 32.1 17.24L32.05 17.29C31.86 17.47 31.63 17.53 31.39 17.53C31.15 17.53 30.91 17.47 30.73 17.29Z" />
					<path id="Path 105" d="M28.36 19.79C28.18 19.64 28.08 19.4 28.08 19.18C28.08 18.7 28.51 18.28 28.98 18.33C29.22 18.33 29.41 18.43 29.55 18.57C29.74 18.72 29.79 18.95 29.79 19.18C29.79 19.65 29.41 20.08 28.89 20.08C28.74 20.02 28.51 19.93 28.36 19.79Z" />
					<path id="Path 106" d="M25.48 21.64C25.48 21.4 25.57 21.16 25.76 21.03C26.14 20.7 26.7 20.75 27.03 21.08C27.3 21.41 27.3 21.93 27.03 22.26C26.7 22.59 26.13 22.59 25.8 22.26C25.59 22.06 25.48 21.86 25.48 21.64Z" />
					<path id="Path 107" d="M20.91 27.06C20.72 26.87 20.63 26.67 20.67 26.45C20.67 26.21 20.76 25.97 20.91 25.84C21.24 25.51 21.81 25.51 22.18 25.84C22.32 25.98 22.41 26.22 22.41 26.45C22.41 26.67 22.32 26.92 22.14 27.06C21.99 27.24 21.75 27.33 21.53 27.33C21.28 27.35 21.09 27.25 20.91 27.06Z" />
					<path id="Path 108" d="M18.3 29.57C18.12 29.42 18.03 29.18 18.03 28.96C18.03 28.72 18.12 28.53 18.3 28.35C18.69 28.02 19.3 28.02 19.68 28.35C19.86 28.5 19.96 28.73 19.96 28.96C19.96 29.2 19.86 29.38 19.68 29.57C19.49 29.75 19.26 29.84 19.02 29.84C18.74 29.8 18.5 29.7 18.3 29.57Z" />
					<path id="Path 109" d="M15.95 32.06C15.62 31.73 15.62 31.17 15.95 30.79C16.28 30.46 16.85 30.46 17.22 30.79C17.55 31.13 17.55 31.69 17.22 32.06C17.04 32.21 16.84 32.3 16.61 32.3C16.32 32.3 16.14 32.21 15.95 32.06Z" />
					<path id="Path 110" d="M13.49 34.52C13.31 34.34 13.22 34.14 13.22 33.91C13.22 33.44 13.64 33.02 14.12 33.02C14.35 33.02 14.59 33.11 14.72 33.25C14.87 33.44 14.96 33.64 14.96 33.86C14.96 34.09 14.87 34.34 14.72 34.47C14.54 34.61 14.34 34.71 14.12 34.71C13.88 34.76 13.64 34.71 13.49 34.52Z" />
					<path id="Path 111" d="M10.9 37.02C10.72 36.87 10.63 36.64 10.63 36.41C10.63 36.17 10.72 35.94 10.9 35.8C11.29 35.47 11.84 35.47 12.23 35.8C12.41 35.95 12.5 36.19 12.5 36.41C12.5 36.65 12.41 36.89 12.23 37.02C11.84 37.35 11.27 37.35 10.9 37.02Z" />
					<path id="Path 112" d="M8.54 39.48C8.21 39.15 8.21 38.58 8.54 38.21L8.54 38.21C8.87 37.88 9.44 37.88 9.77 38.21C10.1 38.54 10.1 39.11 9.77 39.48C9.44 39.81 8.87 39.81 8.54 39.48Z" />
					<path id="Path 113" d="M9.77 9.87C9.91 9.69 10.01 9.49 10.01 9.27C10.01 8.79 9.62 8.37 9.11 8.37C8.87 8.37 8.63 8.46 8.5 8.61C8.31 8.75 8.22 8.99 8.22 9.21C8.22 9.45 8.31 9.69 8.5 9.82C8.87 10.21 9.44 10.21 9.77 9.87Z" />
					<path id="Path 114" d="M12.23 12.33C12.41 12.19 12.5 11.95 12.5 11.73C12.5 11.49 12.41 11.25 12.23 11.12C11.84 10.79 11.29 10.79 10.9 11.12C10.72 11.26 10.63 11.5 10.63 11.73C10.63 11.96 10.72 12.2 10.9 12.33C11.27 12.66 11.84 12.66 12.23 12.33Z" />
					<path id="Path 115" d="M14.72 14.79C15.05 14.46 15.05 13.89 14.72 13.56C14.39 13.23 13.82 13.23 13.45 13.56C13.31 13.71 13.22 13.95 13.18 14.17C13.18 14.41 13.27 14.65 13.42 14.78C13.56 14.96 13.8 15.06 14.02 15.06C14.34 15.07 14.58 14.98 14.72 14.79Z" />
					<path id="Path 116" d="M17.22 17.29C17.55 16.96 17.55 16.39 17.22 16.02C16.89 15.69 16.32 15.69 15.95 16.02C15.62 16.35 15.62 16.92 15.95 17.29C16.14 17.47 16.34 17.53 16.56 17.53C16.79 17.53 17.04 17.43 17.22 17.29Z" />
					<path id="Path 117" d="M19.68 19.79C19.86 19.64 19.96 19.4 19.96 19.18C19.96 18.95 19.86 18.7 19.68 18.57C19.3 18.19 18.74 18.19 18.36 18.57C18.17 18.72 18.08 18.95 18.08 19.18C18.08 19.4 18.17 19.65 18.36 19.79C18.74 20.12 19.3 20.12 19.68 19.79Z" />
					<path id="Path 118" d="M22.41 21.64C22.41 21.4 22.32 21.16 22.14 21.03C21.81 20.7 21.24 20.7 20.91 21.03L20.91 21.03C20.58 21.36 20.58 21.93 20.91 22.3L20.91 22.3C21.24 22.63 21.81 22.63 22.18 22.3C22.32 22.06 22.41 21.86 22.41 21.64Z" />
					<path id="Path 119" d="M24.64 24.74C24.97 24.41 24.97 23.84 24.64 23.47C24.3 23.14 23.74 23.14 23.37 23.47C23.04 23.8 23.04 24.37 23.37 24.74L23.37 24.74C23.74 25.07 24.3 25.07 24.64 24.74Z" />
					<path id="Path 120" d="M27.09 27.06C27.28 26.91 27.37 26.67 27.37 26.45C27.37 26.22 27.28 25.97 27.09 25.84C26.71 25.51 26.15 25.51 25.77 25.84C25.59 25.98 25.49 26.22 25.49 26.45C25.49 26.67 25.59 26.92 25.77 27.06C25.96 27.24 26.19 27.33 26.43 27.33C26.67 27.33 26.91 27.25 27.09 27.06Z" />
					<path id="Path 121" d="M29.59 29.57C29.74 29.42 29.83 29.18 29.83 28.96C29.83 28.72 29.74 28.53 29.59 28.35C29.26 28.02 28.69 28.02 28.32 28.35C28.14 28.53 28.04 28.73 28.04 28.96C28.04 29.43 28.47 29.8 28.94 29.8C29.22 29.8 29.45 29.7 29.59 29.57Z" />
					<path id="Path 122" d="M32.1 32.06C32.43 31.73 32.43 31.17 32.1 30.79C31.77 30.46 31.2 30.46 30.83 30.79L30.83 30.79C30.5 31.13 30.5 31.69 30.83 32.06L30.83 32.06C31.02 32.25 31.22 32.3 31.44 32.3C31.67 32.3 31.9 32.21 32.1 32.06Z" />
					<path id="Path 123" d="M34.41 34.52C34.6 34.34 34.69 34.14 34.69 33.91C34.69 33.68 34.6 33.44 34.41 33.31C34.08 32.98 33.52 32.98 33.19 33.31C33.04 33.49 32.95 33.69 32.95 33.91C32.95 34.15 33.04 34.39 33.19 34.52C33.37 34.71 33.57 34.76 33.79 34.76C34.03 34.76 34.27 34.71 34.41 34.52Z" />
					<path id="Path 124" d="M37 37.02C37.19 36.83 37.28 36.64 37.28 36.36C37.28 36.12 37.19 35.88 37 35.75C36.67 35.42 36.11 35.42 35.78 35.75C35.59 35.94 35.5 36.13 35.54 36.36C35.54 36.6 35.63 36.83 35.78 36.97C36.11 37.35 36.67 37.35 37 37.02Z" />
					<path id="Path 125" d="M39.5 39.48C39.83 39.15 39.83 38.63 39.56 38.25L39.5 38.2C39.12 37.87 38.56 37.87 38.18 38.2C37.85 38.47 37.8 39.04 38.09 39.37L38.18 39.46C38.56 39.85 39.13 39.85 39.5 39.48Z" />
					<path id="Fill-9" d="M15.62 10.54C20.67 7.28 27.19 7.28 32.23 10.54L37.57 5.25C29.59 -1.08 18.3 -1.08 10.28 5.25L15.62 10.54Z" />
					<path id="Fill-10" d="M10.28 32.34C6.93 27.29 6.93 20.78 10.28 15.73L5 10.44C-1.24 18.43 -1.24 29.66 5 37.64L10.28 32.34Z" />
					<path id="Fill-11" d="M32.29 37.64C29.83 39.35 26.95 40.23 23.97 40.23C21 40.28 18.03 39.38 15.57 37.68L10.28 42.97C14.15 46.08 19.02 47.74 23.97 47.68C28.89 47.68 33.65 45.98 37.52 42.91L32.29 37.64Z" />
					<path id="Fill-12" d="M37.48 15.73C39.18 18.23 40.03 21.16 39.98 24.17C39.92 27.09 39.08 29.94 37.48 32.34L42.82 37.63C45.89 33.81 47.54 29.04 47.59 24.12C47.64 19.17 45.99 14.3 42.87 10.43L37.48 15.73Z" />
					<path id="Fill-15" d="M43 39.24C45.08 39.24 46.73 40.89 46.73 42.97C46.73 45.04 45.08 46.69 43 46.69C40.93 46.69 39.28 45.04 39.28 42.97L39.28 42.97C39.32 40.89 40.97 39.24 43 39.24L43 39.24Z" />
					<path id="Fill-16" d="M4.94 39.24C6.98 39.33 8.58 41.04 8.53 43.11C8.47 45.04 6.87 46.6 4.94 46.69C2.91 46.6 1.31 44.9 1.36 42.82C1.46 40.89 3.01 39.33 4.94 39.24Z" />
					<path id="Fill-17" d="M43.1 1.23C45.13 1.23 46.78 2.94 46.78 4.96C46.78 6.98 45.13 8.61 43.1 8.61C41.06 8.61 39.41 6.95 39.41 4.97C39.41 2.94 41.02 1.29 43.1 1.23Z" />
					<path id="Fill-18" d="M4.9 1.23C6.94 1.23 8.59 2.83 8.63 4.87L8.63 4.87C8.63 6.9 6.93 8.55 4.9 8.55L4.9 8.55C2.87 8.55 1.22 6.95 1.18 4.87C1.18 2.88 2.87 1.23 4.9 1.23Z" />
				</g>
				<path id="Path 126" d="M84.49 22.69L84.49 32.61L81.93 32.61L81.93 22.69C81.93 19.91 80.11 18.04 77.41 18.04C74.72 18.04 72.85 19.99 72.85 22.79L72.85 32.61L70.28 32.61L70.28 22.79C70.28 20.01 68.41 18.07 65.73 18.07C63.06 18.07 61.2 20.01 61.2 22.79L61.2 32.61L58.64 32.61L58.64 15.89L61.1 15.89L61.12 17.46C62.26 16.24 63.88 15.57 65.76 15.57C68.4 15.57 70.51 16.74 71.61 18.75C72.77 16.79 74.94 15.57 77.41 15.57C81.58 15.57 84.49 18.5 84.49 22.69Z" />
				<path id="Path 127" fill-rule="evenodd" d="M105.18 15.89L105.18 32.61L102.62 32.61L102.62 30.27C101.1 31.96 99.04 32.87 96.69 32.87C91.85 32.87 88.2 29.16 88.2 24.25C88.2 19.38 91.85 15.7 96.69 15.7C99.08 15.7 101.2 16.62 102.62 18.23L102.62 15.89L105.18 15.89ZM102.75 24.27C102.75 21.34 100.85 18.2 96.69 18.2C93.26 18.2 90.76 20.74 90.76 24.25C90.76 27.78 93.26 30.34 96.69 30.34C100.85 30.34 102.75 27.19 102.75 24.27Z" />
				<path id="Rectangle 75" d="M109.59 15.7L112.15 15.7L112.15 32.49L109.59 32.49L109.59 15.7Z" />
				<path id="Path 128" d="M112.66 11.14C112.66 12.29 111.77 12.88 110.9 12.88C110.03 12.88 109.14 12.29 109.14 11.14C109.14 10 110.03 9.4 110.9 9.4C111.77 9.4 112.66 10 112.66 11.14Z" />
				<path id="Path 129" fill-rule="evenodd" d="M132.9 15.89L132.9 32.61L130.34 32.61L130.34 30.27C128.82 31.96 126.77 32.87 124.41 32.87C119.57 32.87 115.92 29.16 115.92 24.25C115.92 19.38 119.57 15.7 124.41 15.7C126.8 15.7 128.92 16.62 130.34 18.23L130.34 15.89L132.9 15.89ZM130.47 24.27C130.47 21.34 128.58 18.2 124.41 18.2C120.98 18.2 118.49 20.74 118.49 24.25C118.49 27.78 120.98 30.34 124.41 30.34C128.58 30.34 130.47 27.19 130.47 24.27Z" />
				<path id="Path 130" d="M148.6 16.9L147.41 19.05L146.97 18.78C146.26 18.34 145.45 18.12 144.55 18.12C141.93 18.15 139.87 20.23 139.87 22.87L139.87 32.54L137.31 32.54L137.31 15.81L139.76 15.81L139.8 17.53C140.92 16.34 142.6 15.65 144.55 15.65C144.6 15.65 144.66 15.65 144.72 15.65C145.93 15.65 147.1 15.99 148.19 16.65L148.6 16.9Z" />
			</g>
		</g>
	</g>
</svg>