<?xml version="1.0" standalone="no"?>
<!DOCTYPE svg PUBLIC "-//W3C//DTD SVG 20010904//EN"
 "http://www.w3.org/TR/2001/REC-SVG-20010904/DTD/svg10.dtd">
<svg version="1.0" xmlns="http://www.w3.org/2000/svg"
 width="256.000000pt" height="256.000000pt" viewBox="0 0 256.000000 256.000000"
 preserveAspectRatio="xMidYMid meet">
<metadata>
Created by potrace 1.11, written by Peter Selinger 2001-2013
</metadata>
<g transform="translate(0.000000,256.000000) scale(0.100000,-0.100000)"
fill="#000000" stroke="none">
<path d="M1078 2500 c-186 -39 -353 -114 -495 -225 -3 -2 267 -275 272 -275 2
0 36 16 76 36 224 112 486 115 707 7 42 -21 80 -40 85 -41 4 -2 69 58 144 133
l137 136 -30 24 c-82 66 -274 158 -401 190 -95 24 -118 27 -268 30 -106 2
-161 -1 -227 -15z"/>
<path d="M219 2484 c-87 -26 -147 -118 -137 -211 18 -155 209 -232 324 -131
165 145 23 403 -187 342z"/>
<path d="M2232 2488 c-57 -12 -125 -78 -143 -136 -18 -63 0 -145 42 -189 106
-108 268 -83 330 52 68 149 -66 309 -229 273z"/>
<path d="M466 2099 c-19 -28 -7 -61 29 -74 23 -8 30 -6 46 13 17 22 16 43 -4
70 -15 19 -54 14 -71 -9z"/>
<path d="M2029 2108 c-26 -21 -29 -45 -10 -69 36 -44 103 1 78 52 -14 28 -45
36 -68 17z"/>
<path d="M609 1987 c-32 -17 -37 -60 -9 -80 39 -27 87 3 76 48 -9 34 -36 47
-67 32z"/>
<path d="M1910 1987 c-32 -16 -37 -50 -11 -76 33 -33 86 -6 79 40 -5 34 -38
51 -68 36z"/>
<path d="M248 1958 c-45 -60 -105 -172 -141 -263 -137 -346 -85 -768 133
-1072 l37 -52 134 135 c74 74 135 139 137 144 2 5 -7 26 -20 47 -88 141 -125
359 -92 533 14 77 55 186 91 242 12 21 23 41 23 46 0 8 -266 272 -274 272 -2
0 -15 -15 -28 -32z"/>
<path d="M2144 1855 c-74 -74 -134 -137 -134 -139 0 -2 18 -39 39 -82 62 -125
84 -218 83 -354 -1 -139 -24 -239 -82 -354 -33 -65 -38 -81 -28 -94 7 -9 69
-71 137 -139 l125 -123 38 53 c20 28 60 97 87 152 87 178 117 300 118 496 2
196 -34 356 -117 522 -39 77 -116 197 -126 197 -3 0 -66 -61 -140 -135z"/>
<path d="M733 1837 c-37 -17 -36 -74 3 -87 24 -9 62 8 67 29 9 44 -29 77 -70
58z"/>
<path d="M1784 1839 c-25 -9 -34 -36 -23 -67 12 -31 63 -34 84 -5 28 38 -16
89 -61 72z"/>
<path d="M873 1708 c-19 -25 -21 -46 -6 -67 33 -48 105 -3 80 49 -14 28 -58
39 -74 18z"/>
<path d="M1646 1704 c-9 -8 -16 -24 -16 -34 0 -10 7 -26 16 -34 8 -9 24 -16
34 -16 43 0 65 54 34 84 -8 9 -24 16 -34 16 -10 0 -26 -7 -34 -16z"/>
<path d="M1009 1587 c-26 -14 -37 -51 -19 -71 32 -40 99 -11 86 37 -9 36 -35
49 -67 34z"/>
<path d="M1538 1592 c-18 -4 -34 -37 -29 -62 7 -41 76 -45 90 -6 16 41 -17 78
-61 68z"/>
<path d="M1123 1458 c-20 -26 -21 -57 -3 -73 41 -37 101 7 77 55 -14 28 -58
39 -74 18z"/>
<path d="M1373 1458 c-19 -25 -21 -46 -7 -67 21 -29 60 -27 80 4 15 23 15 27
0 50 -18 27 -57 34 -73 13z"/>
<path d="M1246 1304 c-30 -30 -15 -76 27 -81 47 -6 75 48 41 81 -8 9 -24 16
-34 16 -10 0 -26 -7 -34 -16z"/>
<path d="M1132 1189 c-30 -11 -34 -64 -6 -85 38 -30 92 18 71 63 -11 25 -34
33 -65 22z"/>
<path d="M1391 1191 c-47 -12 -43 -84 5 -94 42 -8 66 25 51 70 -9 25 -24 32
-56 24z"/>
<path d="M996 1054 c-9 -8 -16 -24 -16 -34 0 -10 7 -26 16 -34 8 -9 24 -16 34
-16 10 0 26 7 34 16 9 8 16 24 16 34 0 10 -7 26 -16 34 -8 9 -24 16 -34 16
-10 0 -26 -7 -34 -16z"/>
<path d="M1523 1058 c-19 -25 -21 -46 -6 -67 33 -48 105 -3 80 49 -14 28 -58
39 -74 18z"/>
<path d="M883 942 c-16 -10 -33 -56 -25 -69 23 -35 78 -34 91 1 11 30 3 52
-25 65 -29 13 -26 13 -41 3z"/>
<path d="M1652 934 c-41 -29 -17 -94 32 -86 31 6 46 21 46 48 0 19 -32 54 -50
54 -3 0 -16 -7 -28 -16z"/>
<path d="M723 808 c-19 -25 -21 -46 -6 -67 33 -49 111 5 79 54 -16 24 -59 31
-73 13z"/>
<path d="M1771 801 c-33 -33 -6 -86 40 -79 34 5 51 38 36 68 -16 32 -50 37
-76 11z"/>
<path d="M609 687 c-32 -17 -37 -60 -9 -80 39 -27 87 3 76 48 -9 34 -36 47
-67 32z"/>
<path d="M1901 683 c-44 -30 -7 -102 42 -84 32 12 43 35 30 64 -14 30 -45 39
-72 20z"/>
<path d="M718 428 l-137 -136 32 -25 c327 -246 795 -291 1166 -111 91 45 203
114 215 133 3 5 -55 70 -130 145 l-135 136 -37 -23 c-229 -142 -524 -149 -767
-19 l-70 37 -137 -137z"/>
<path d="M488 542 c-23 -5 -39 -53 -24 -74 22 -30 80 -23 88 10 11 42 -21 74
-64 64z"/>
<path d="M2039 543 c-19 -5 -37 -41 -32 -64 8 -36 71 -41 94 -7 20 31 -23 79
-62 71z"/>
<path d="M227 486 c-142 -38 -194 -217 -94 -323 101 -107 267 -81 328 52 70
152 -70 314 -234 271z"/>
<path d="M2220 484 c-110 -34 -168 -156 -124 -262 68 -164 290 -168 365 -7 56
120 -30 266 -164 279 -17 2 -52 -3 -77 -10z"/>
</g>
</svg>
