<svg width="1408" height="1408" viewBox="0 0 1408 1408" fill="none" xmlns="http://www.w3.org/2000/svg">
<path d="M984.675 206.177L804.248 629.856H1066.69C1097.15 629.856 1125.27 648.686 1136.98 676.932C1146.36 707.531 1139.33 740.484 1115.89 761.668L516.034 1288.91C487.916 1310.1 450.424 1312.45 422.306 1291.27C394.187 1272.44 382.471 1234.78 396.531 1201.82L576.957 778.144H316.862C284.057 778.144 255.938 759.314 246.566 731.069C234.85 700.47 241.879 667.517 265.311 646.333L865.171 119.087C893.29 97.903 930.781 95.5492 958.9 116.733C987.018 135.563 998.734 173.224 984.675 206.177Z" fill="black"/>
</svg>
